<svg xmlns="http://www.w3.org/2000/svg" viewBox="0 0 1296.21 231.13"><defs><style>.cls-1{fill:none;stroke:#1b1b1b;stroke-miterlimit:10;stroke-width:2px;}</style></defs><g id="Layer_2" data-name="Layer 2"><g id="Layer_1-2" data-name="Layer 1"><path class="cls-1" d="M279.29,58.35H309L333.69,111c8.7,18.42,11.59,26.1,13.3,31.89,1.54-5.79,4.43-13.47,13.13-31.89L385,58.35h28.65V177.72H390.31V129.46c0-16.2.51-24.21,1.7-34.62l-39.73,82.88h-11.6L301,94.84c1.19,10.41,1.7,18.42,1.7,34.62v48.26H279.29Z"/><path class="cls-1" d="M425.62,133.55C425.62,108,445.4,87,472.85,87s47.24,21,47.24,46.55-19.78,46.39-47.24,46.39S425.62,159.13,425.62,133.55ZM472.85,159c14.67,0,24.22-11.59,24.22-25.41S487.52,108,472.85,108s-24.21,11.77-24.21,25.58S458.19,159,472.85,159Z"/><path class="cls-1" d="M530.33,89.05H553v13c4.6-9.89,13.47-15,27.11-15,19.1,0,33.77,14.15,33.77,36.49v54.23h-23v-48.6c0-15.35-7.68-22-19.1-22-9.72,0-18.42,6.65-18.42,22v48.6h-23Z"/><path class="cls-1" d="M623.27,133.55c0-25.58,19.27-46.72,45.88-46.72s45,21.14,45,46.72a46.92,46.92,0,0,1-.68,8.19H647.15c2.56,10.4,10.4,17.73,22,17.73a24.83,24.83,0,0,0,21.66-11.93L708.71,161c-7.16,11.08-22,18.93-39.56,18.93C641.69,179.94,623.27,159.13,623.27,133.55Zm67.71-9c-2.56-9.9-10.92-17.91-22.17-17.91-10.92,0-19.1,7.33-21.66,17.91Z"/><path class="cls-1" d="M712.64,211.66l3.41-22a41.51,41.51,0,0,0,10.4,1.19c8.87,0,14.5-5.63,17.06-13.47l1.19-3.75L709.57,89.05h27.8l17.22,50.64a95,95,0,0,1,3.75,14.16,97.48,97.48,0,0,1,3.75-14.16l17.23-50.64H806.6l-39.22,94.3c-7.5,17.91-18.59,30-39.39,30C723.38,213.36,717.25,213,712.64,211.66Z"/><path class="cls-1" d="M805.76,154.19l20.63-13.13c6.14,12.28,16,17.56,26.43,17.56,11.09,0,17.91-5.45,17.91-13.64,0-11.94-12.62-15.69-27.28-19.44C825,120.76,813.26,110,813.26,91.94c0-21.48,16.88-35.64,42.12-35.64,18.59,0,30.53,8.19,39.39,22.17L874.31,91.09c-5.8-9.21-11.26-13.47-20.12-13.47-9.55,0-16.54,5.12-16.54,13.13,0,8.87,8.52,11.77,18.93,15,14,4.43,38.54,10.57,38.54,37.86,0,21.65-16.55,36.32-43.66,36.32C832.53,179.94,816.16,172.44,805.76,154.19Z"/><path class="cls-1" d="M905.7,89.05h22.68v14.32c4.77-9.72,12.78-16.2,28.3-16.2,24.39,0,43.83,21,43.83,46.55s-19.44,46.22-43.83,46.22c-15.17,0-23.19-6.14-28-15.35v47.24h-23Zm47.23,70.08c14.67,0,24.56-12.1,24.56-25.58,0-13.81-9.89-25.58-24.56-25.58-15.17,0-24.9,11.94-24.9,25.75S937.76,159.13,952.93,159.13Z"/><path class="cls-1" d="M1006.49,133.55c0-25.58,19.27-46.72,45.87-46.72s45,21.14,45,46.72a46.92,46.92,0,0,1-.68,8.19h-66.34c2.56,10.4,10.41,17.73,22,17.73A24.82,24.82,0,0,0,1074,147.54l17.9,13.47c-7.16,11.08-22,18.93-39.56,18.93C1024.91,179.94,1006.49,159.13,1006.49,133.55Zm67.7-9c-2.56-9.9-10.91-17.91-22.17-17.91-10.91,0-19.1,7.33-21.66,17.91Z"/><path class="cls-1" d="M1107.45,89.05h22.68v13c4.61-9.89,13.47-15,27.12-15,19.1,0,33.76,14.15,33.76,36.49v54.23h-23v-48.6c0-15.35-7.67-22-19.1-22-9.72,0-18.42,6.65-18.42,22v48.6h-23Z"/><path class="cls-1" d="M1200.4,133.72c0-25.58,19.44-46.55,43.82-46.55,15.18,0,23.19,6.14,28,15.52V53.23h23V177.72h-22.34V163.23c-4.77,10.06-12.79,16.71-28.65,16.71C1219.84,179.94,1200.4,159.3,1200.4,133.72ZM1248,159.13c15.18,0,24.9-11.59,24.9-25.41S1263.15,108,1248,108c-14.66,0-24.55,11.77-24.55,25.58C1223.42,147,1233.31,159.13,1248,159.13Z"/><path class="cls-1" d="M115.56,1h0A114.56,114.56,0,0,0,1,115.56H1A114.57,114.57,0,0,0,115.56,230.13h0A114.58,114.58,0,0,0,230.13,115.56h0A114.57,114.57,0,0,0,115.56,1ZM217.35,103.05a189.36,189.36,0,0,0-64.7,32.55c-5.49,4.18-10.64,8.79-16,13.16a26.08,26.08,0,0,1-4.16,2.91c-2.08,1.11-3.39.39-3.78-1.94a22.74,22.74,0,0,1,.56-8.5c.72-3.46,1.6-6.88,2.5-10.3a12.42,12.42,0,0,1,3.58-5.49A42.85,42.85,0,0,1,145.43,118a2,2,0,0,0,.82-.66c-1.72.66-3.44,1.28-5.15,2a183.34,183.34,0,0,0-35,19.19c-4.67,3.22-9.17,6.69-13.81,10a17.6,17.6,0,0,1-4.19,2.24c-2,.73-3.52-.13-4.27-2.15a13.68,13.68,0,0,1-.56-6.25,54.7,54.7,0,0,1,7.34-22.81c1.7-2.83,4.29-4.9,6.78-7a149.38,149.38,0,0,1,13.78-10.23c-.5.19-1,.37-1.49.57l-1.6.67a165.93,165.93,0,0,0-26,14.55,407,407,0,0,0-56.51,46.1,5.54,5.54,0,0,0-.59.94l-.36-.27c.31-2.1.6-4.2.94-6.3,1.32-8.18,2.59-16.38,4-24.54.76-4.31,1.85-8.56,2.76-12.85A14.23,14.23,0,0,1,36.44,114a103.37,103.37,0,0,1,15.11-12.25,328.5,328.5,0,0,1,54.6-30.6c4-1.77,8.25-3.14,12.41-4.61a11.15,11.15,0,0,1,3.2-.51c2.55-.09,4.29,1.07,4.7,3.58a26.63,26.63,0,0,1,.29,7.29C126,83,125,89.07,124.12,95.15c-.05.32-.08.65-.13,1.11,1.85-.81,3.58-1.58,5.33-2.31,8.06-3.36,16.16-6.62,24.67-8.68a40.7,40.7,0,0,1,7.44-1.08c3-.15,4.55,1.35,4.43,4.31a84.2,84.2,0,0,1-1.09,8.78c-.63,4.4-1.33,8.8-2,13.2,0,.16,0,.33-.06.68A180.19,180.19,0,0,1,218,102.8C217.79,102.88,217.58,103,217.35,103.05Z"/></g></g></svg>